HIERARCHY
ROOT Hips
{
    OFFSET 0.000000 0.000000 0.000000
    CHANNELS 6 Xposition Yposition Zposition Zrotation Xrotation Yrotation
    JOINT Spine
    {
        OFFSET 0.000000 7.841939 0.000000
        CHANNELS 3 Zrotation Xrotation Yrotation
        JOINT Spine1
        {
            OFFSET -0.000000 21.266273 0.000000
            CHANNELS 3 Zrotation Xrotation Yrotation
            JOINT Neck
            {
                OFFSET 0.000000 22.362072 -0.000000
                CHANNELS 3 Zrotation Xrotation Yrotation
                JOINT Head
                {
                    OFFSET -0.000000 13.885474 1.867090
                    CHANNELS 3 Zrotation Xrotation Yrotation
                    End Site
                    {
                        OFFSET 0.000000 18.670868 0.000000
                    }
                }
            }
            JOINT LeftShoulder
            {
                OFFSET 3.727630 15.832895 -0.446436
                CHANNELS 3 Zrotation Xrotation Yrotation
                JOINT LeftArm
                {
                    OFFSET 15.415399 0.000006 0.000000
                    CHANNELS 3 Zrotation Xrotation Yrotation
                    JOINT LeftForeArm
                    {
                        OFFSET 23.524698 0.000000 -0.000000
                        CHANNELS 3 Zrotation Xrotation Yrotation
                        JOINT LeftHand
                        {
                            OFFSET 24.079306 0.000006 0.000001
                            CHANNELS 3 Zrotation Xrotation Yrotation
                            JOINT LeftHandThumb1
                            {
                                OFFSET 1.951111 -2.217166 3.104029
                                CHANNELS 3 Zrotation Xrotation Yrotation
                                JOINT LeftHandThumb2
                                {
                                    OFFSET 2.946850 -0.000001 0.000000
                                    CHANNELS 3 Zrotation Xrotation Yrotation
                                    JOINT LeftHandThumb3
                                    {
                                        OFFSET 2.518699 0.000001 -0.000002
                                        CHANNELS 3 Zrotation Xrotation Yrotation
                                        End Site
                                        {
                                            OFFSET 2.351316 0.000000 0.000000
                                        }
                                    }
                                }
                            }
                            JOINT LeftHandIndex1
                            {
                                OFFSET 7.981797 0.000004 3.104029
                                CHANNELS 3 Zrotation Xrotation Yrotation
                                JOINT LeftHandIndex2
                                {
                                    OFFSET 4.434329 0.000001 -0.000001
                                    CHANNELS 3 Zrotation Xrotation Yrotation
                                    JOINT LeftHandIndex3
                                    {
                                        OFFSET 2.217171 0.000004 -0.000002
                                        CHANNELS 3 Zrotation Xrotation Yrotation
                                        End Site
                                        {
                                            OFFSET 2.069824 0.000000 0.000000
                                        }
                                    }
                                }
                            }
                            JOINT LeftHandMiddle1
                            {
                                OFFSET 7.981800 0.000003 1.028759
                                CHANNELS 3 Zrotation Xrotation Yrotation
                                JOINT LeftHandMiddle2
                                {
                                    OFFSET 4.877760 0.000000 0.000000
                                    CHANNELS 3 Zrotation Xrotation Yrotation
                                    JOINT LeftHandMiddle3
                                    {
                                        OFFSET 2.660600 -0.000003 -0.000000
                                        CHANNELS 3 Zrotation Xrotation Yrotation
                                        End Site
                                        {
                                            OFFSET 2.483785 0.000000 0.000000
                                        }
                                    }
                                }
                            }
                            JOINT LeftHandRing1
                            {
                                OFFSET 7.538362 -0.000000 -1.028761
                                CHANNELS 3 Zrotation Xrotation Yrotation
                                JOINT LeftHandRing2
                                {
                                    OFFSET 4.434332 -0.000006 -0.000000
                                    CHANNELS 3 Zrotation Xrotation Yrotation
                                    JOINT LeftHandRing3
                                    {
                                        OFFSET 2.217170 -0.000005 0.000000
                                        CHANNELS 3 Zrotation Xrotation Yrotation
                                        End Site
                                        {
                                            OFFSET 2.069824 0.000000 0.000000
                                        }
                                    }
                                }
                            }
                            JOINT LeftHandPinky1
                            {
                                OFFSET 7.094930 -0.000002 -3.104030
                                CHANNELS 3 Zrotation Xrotation Yrotation
                                JOINT LeftHandPinky2
                                {
                                    OFFSET 3.547459 0.000002 0.000001
                                    CHANNELS 3 Zrotation Xrotation Yrotation
                                    JOINT LeftHandPinky3
                                    {
                                        OFFSET 1.773729 -0.000005 -0.000001
                                        CHANNELS 3 Zrotation Xrotation Yrotation
                                        End Site
                                        {
                                            OFFSET 1.655854 0.000000 0.000000
                                        }
                                    }
                                }
                            }
                        }
                    }
                }
            }
            JOINT RightShoulder
            {
                OFFSET -3.727629 15.832904 -0.446436
                CHANNELS 3 Zrotation Xrotation Yrotation
                JOINT RightArm
                {
                    OFFSET -15.415396 -0.000006 -0.000000
                    CHANNELS 3 Zrotation Xrotation Yrotation
                    JOINT RightForeArm
                    {
                        OFFSET -23.524696 -0.000005 0.000000
                        CHANNELS 3 Zrotation Xrotation Yrotation
                        JOINT RightHand
                        {
                            OFFSET -24.079292 0.000002 -0.000000
                            CHANNELS 3 Zrotation Xrotation Yrotation
                            JOINT RightHandThumb1
                            {
                                OFFSET -1.951107 -2.217166 3.104029
                                CHANNELS 3 Zrotation Xrotation Yrotation
                                JOINT RightHandThumb2
                                {
                                    OFFSET -2.946850 -0.000005 0.000002
                                    CHANNELS 3 Zrotation Xrotation Yrotation
                                    JOINT RightHandThumb3
                                    {
                                        OFFSET -2.518700 -0.000003 0.000002
                                        CHANNELS 3 Zrotation Xrotation Yrotation
                                        End Site
                                        {
                                            OFFSET -2.351316 0.000000 0.000000
                                        }
                                    }
                                }
                            }
                            JOINT RightHandIndex1
                            {
                                OFFSET -7.981794 0.000004 3.104029
                                CHANNELS 3 Zrotation Xrotation Yrotation
                                JOINT RightHandIndex2
                                {
                                    OFFSET -4.434332 -0.000002 0.000000
                                    CHANNELS 3 Zrotation Xrotation Yrotation
                                    JOINT RightHandIndex3
                                    {
                                        OFFSET -2.217168 0.000004 -0.000001
                                        CHANNELS 3 Zrotation Xrotation Yrotation
                                        End Site
                                        {
                                            OFFSET -2.069824 0.000000 0.000000
                                        }
                                    }
                                }
                            }
                            JOINT RightHandMiddle1
                            {
                                OFFSET -7.981797 -0.000005 1.028759
                                CHANNELS 3 Zrotation Xrotation Yrotation
                                JOINT RightHandMiddle2
                                {
                                    OFFSET -4.877761 -0.000005 -0.000001
                                    CHANNELS 3 Zrotation Xrotation Yrotation
                                    JOINT RightHandMiddle3
                                    {
                                        OFFSET -2.660600 0.000003 -0.000001
                                        CHANNELS 3 Zrotation Xrotation Yrotation
                                        End Site
                                        {
                                            OFFSET -2.483785 0.000000 0.000000
                                        }
                                    }
                                }
                            }
                            JOINT RightHandRing1
                            {
                                OFFSET -7.538356 0.000004 -1.028759
                                CHANNELS 3 Zrotation Xrotation Yrotation
                                JOINT RightHandRing2
                                {
                                    OFFSET -4.434331 0.000003 -0.000000
                                    CHANNELS 3 Zrotation Xrotation Yrotation
                                    JOINT RightHandRing3
                                    {
                                        OFFSET -2.217168 -0.000002 0.000000
                                        CHANNELS 3 Zrotation Xrotation Yrotation
                                        End Site
                                        {
                                            OFFSET -2.069824 0.000000 0.000000
                                        }
                                    }
                                }
                            }
                            JOINT RightHandPinky1
                            {
                                OFFSET -7.094926 -0.000002 -3.104029
                                CHANNELS 3 Zrotation Xrotation Yrotation
                                JOINT RightHandPinky2
                                {
                                    OFFSET -3.547456 -0.000003 -0.000000
                                    CHANNELS 3 Zrotation Xrotation Yrotation
                                    JOINT RightHandPinky3
                                    {
                                        OFFSET -1.773730 0.000004 0.000001
                                        CHANNELS 3 Zrotation Xrotation Yrotation
                                        End Site
                                        {
                                            OFFSET -1.655854 0.000000 0.000000
                                        }
                                    }
                                }
                            }
                        }
                    }
                }
            }
        }
    }
    JOINT LeftUpLeg
    {
        OFFSET 9.335429 0.000000 0.000000
        CHANNELS 3 Zrotation Xrotation Yrotation
        JOINT LeftLeg
        {
            OFFSET 0.000001 -40.546696 0.000000
            CHANNELS 3 Zrotation Xrotation Yrotation
            JOINT LeftFoot
            {
                OFFSET 0.000000 -40.233593 -0.000000
                CHANNELS 3 Zrotation Xrotation Yrotation
                JOINT LeftToeBase
                {
                    OFFSET 0.000001 -6.068030 14.003201
                    CHANNELS 3 Zrotation Xrotation Yrotation
                    End Site
                    {
                        OFFSET 0.000000 0.000000 3.734173
                    }
                }
            }
        }
    }
    JOINT RightUpLeg
    {
        OFFSET -9.335429 -0.000000 -0.000000
        CHANNELS 3 Zrotation Xrotation Yrotation
        JOINT RightLeg
        {
            OFFSET -0.000001 -40.546703 -0.000000
            CHANNELS 3 Zrotation Xrotation Yrotation
            JOINT RightFoot
            {
                OFFSET 0.000000 -40.233597 -0.000001
                CHANNELS 3 Zrotation Xrotation Yrotation
                JOINT RightToeBase
                {
                    OFFSET -0.000000 -6.068029 14.003200
                    CHANNELS 3 Zrotation Xrotation Yrotation
                    End Site
                    {
                        OFFSET 0.000000 0.000000 3.734173
                    }
                }
            }
        }
    }
}
MOTION
Frames:    4
Frame Time:    0.008333
-52.052784    87.096977    6.937431    0.269585    0.025886    93.789131    -0.771852    -9.430816    -4.700253    -0.670280    12.191252    -4.392058    2.900729    -5.475126    -2.042289    0.288327    -4.567953    -2.296260    -0.828276    -5.390123    -8.710270    -58.660324    16.936115    -8.332699    -4.215477    -6.024330    -35.080387    3.039346    -0.499858    -6.631298    21.891567    46.522415    -61.157276    -22.867792    -4.684810    22.867792    -0.000000    0.000000    -0.000000    -6.022408    17.906967    -15.311726    -5.729671    -0.000003    0.000001    -5.729662    0.000001    0.000002    -5.729668    -0.000002    -8.584823    -5.729661    0.000001    0.000000    -5.729654    0.000007    0.000000    -5.729661    0.000006    5.723192    -5.729673    -0.000010    0.000003    -5.729657    0.000003    -0.000005    -6.022412    -17.906981    9.588463    -5.729664    0.000008    0.000002    -5.729661    -0.000002    -0.000002    7.330356    8.696232    -0.438882    74.482788    34.189140    5.551739    0.916925    -25.175299    2.154659    4.735696    -1.320976    -6.964193    -21.891562    46.522415    61.157276    22.867775    -4.684812    -22.867786    -0.000000    0.000000    -0.000000    6.022403    17.906967    15.311730    5.729665    0.000001    -0.000007    5.729669    -0.000005    0.000007    5.729655    0.000001    8.584821    5.729669    0.000004    0.000003    5.729661    -0.000004    -0.000003    5.729673    0.000008    -5.723187    5.729662    -0.000002    0.000003    5.729656    -0.000002    -0.000003    6.022415    -17.906967    -9.588458    5.729662    -0.000002    -0.000003    5.729667    -0.000003    0.000000    -1.944538    7.692397    -3.216870    0.000001    19.250181    -0.000002    -2.476700    -23.362394    9.052004    -0.000000    -2.172840    -0.000004    -1.056608    -21.063114    6.467827    0.000003    1.651198    0.000002    0.452154    -6.456063    -22.340666    -0.000000    -2.692107    -0.000008    
-50.885094    86.971367    6.993120    0.309681    0.087758    94.165306    -0.802866    -9.483893    -4.861258    -0.705060    12.232394    -4.538217    2.880191    -5.371248    -2.051383    0.335097    -4.603787    -2.293789    -0.834340    -5.454828    -8.774659    -58.304611    16.587330    -8.366570    -4.216984    -5.783688    -36.192112    3.277724    -0.431581    -6.596096    21.891537    46.522491    -61.157406    -22.867790    -4.684808    22.867783    -0.000000    0.000000    -0.000000    -6.022406    17.906971    -15.311850    -5.729668    -0.000009    -0.000003    -5.729654    0.000008    0.000002    -5.729668    0.000002    -8.584886    -5.729661    -0.000003    -0.000002    -5.729659    0.000011    0.000002    -5.729662    0.000007    5.723236    -5.729666    -0.000003    0.000002    -5.729662    -0.000002    -0.000002    -6.022408    -17.906971    9.588548    -5.729669    -0.000004    0.000003    -5.729661    0.000011    -0.000001    7.290846    8.832267    -0.780320    75.375404    33.756611    4.733287    0.597309    -24.833549    1.421988    4.936738    -1.060170    -7.304138    -21.891546    46.522503    61.157425    22.867783    -4.684809    -22.867792    -0.000000    0.000000    -0.000000    6.022404    17.906973    15.311852    5.729666    -0.000002    0.000000    5.729666    -0.000003    0.000004    5.729654    0.000002    8.584884    5.729669    0.000000    -0.000000    5.729662    -0.000002    -0.000003    5.729656    -0.000004    -5.723241    5.729668    0.000007    0.000003    5.729663    0.000005    -0.000000    6.022412    -17.906967    -9.588552    5.729654    -0.000005    -0.000003    5.729674    0.000004    0.000003    -1.806064    8.165521    -3.079200    -0.000005    19.844925    0.000018    -2.519268    -23.408722    8.612712    -0.000000    -2.389015    0.000012    -1.277195    -20.828276    6.784428    -0.000002    1.077125    -0.000007    0.866343    -6.618045    -22.419882    0.000003    -2.752598    0.000002    
-49.692680    86.856697    7.076463    0.388685    0.122626    94.559631    -0.828974    -9.493433    -5.013597    -0.722487    12.278159    -4.679975    2.853285    -5.299482    -2.075633    0.388984    -4.634563    -2.307112    -0.812811    -5.518865    -8.822378    -58.005260    16.261131    -8.389239    -4.210831    -5.555844    -37.251892    3.516534    -0.386528    -6.558886    21.891521    46.522606    -61.157597    -22.867794    -4.684814    22.867792    -0.000000    0.000000    -0.000000    -6.022410    17.906975    -15.311972    -5.729664    -0.000001    -0.000003    -5.729671    -0.000005    -0.000002    -5.729663    0.000003    -8.584949    -5.729670    -0.000008    0.000001    -5.729660    -0.000001    -0.000003    -5.729659    0.000002    5.723275    -5.729669    0.000004    0.000002    -5.729661    -0.000005    -0.000002    -6.022405    -17.906975    9.588635    -5.729655    0.000014    0.000001    -5.729671    -0.000010    0.000003    7.246161    8.968213    -1.154163    76.233139    33.310169    3.943137    0.304161    -24.352551    0.737595    5.078337    -0.748705    -7.550802    -21.891531    46.522610    61.157597    22.867786    -4.684807    -22.867783    -0.000000    0.000000    -0.000000    6.022410    17.906969    15.311968    5.729659    0.000003    -0.000000    5.729669    -0.000001    -0.000010    5.729670    0.000003    8.584949    5.729664    -0.000000    -0.000007    5.729664    -0.000002    0.000003    5.729663    -0.000011    -5.723277    5.729666    -0.000002    -0.000003    5.729662    0.000003    -0.000007    6.022410    -17.906981    -9.588638    5.729665    0.000005    -0.000004    5.729662    0.000003    -0.000000    -1.591072    8.632751    -2.922568    -0.000001    20.519320    0.000008    -2.535564    -23.367537    8.124640    -0.000000    -2.660408    -0.000001    -1.358127    -20.647581    7.161116    0.000002    1.119949    -0.000001    1.261413    -6.876733    -22.389532    -0.000000    -2.874215    -0.000005    
-48.484936    86.744987    7.184294    0.512659    0.122971    94.920441    -0.850413    -9.484327    -5.147449    -0.714948    12.327332    -4.809279    2.830614    -5.226551    -2.101824    0.437384    -4.645884    -2.323380    -0.770715    -5.583319    -8.841776    -57.774097    15.958450    -8.379205    -4.199561    -5.347259    -38.235271    3.740023    -0.366316    -6.505276    21.891514    46.522678    -61.157742    -22.867783    -4.684810    22.867783    -0.000000    0.000000    -0.000000    -6.022409    17.906973    -15.312094    -5.729654    0.000008    0.000002    -5.729665    -0.000008    -0.000003    -5.729667    0.000001    -8.585007    -5.729658    0.000003    -0.000002    -5.729662    0.000000    0.000000    -5.729664    0.000003    5.723323    -5.729668    -0.000004    0.000002    -5.729650    0.000009    -0.000005    -6.022408    -17.906965    9.588725    -5.729666    -0.000011    0.000001    -5.729658    0.000015    -0.000001    7.204040    9.093090    -1.527929    77.045906    32.865047    3.199893    0.042222    -23.751873    0.104810    5.160814    -0.388193    -7.723900    -21.891523    46.522675    61.157753    22.867796    -4.684819    -22.867798    -0.000000    0.000000    -0.000000    6.022398    17.906967    15.312104    5.729671    0.000003    -0.000000    5.729662    -0.000001    0.000007    5.729659    -0.000003    8.585012    5.729662    -0.000010    0.000001    5.729665    0.000008    -0.000011    5.729670    0.000008    -5.723321    5.729656    -0.000005    -0.000007    5.729660    -0.000003    0.000000    6.022407    -17.906973    -9.588720    5.729665    0.000003    -0.000000    5.729663    0.000007    -0.000004    -1.309354    9.101664    -2.757196    -0.000001    21.286766    0.000001    -2.515813    -23.260983    7.617274    -0.000000    -2.993371    0.000004    -1.279888    -20.542852    7.560943    0.000002    1.760102    0.000004    1.657941    -7.119217    -22.321573    0.000003    -3.025923    0.000010    
